<mxfile host="app.diagrams.net" agent="Mozilla/5.0 (Windows NT 10.0; Win64; x64; rv:137.0) Gecko/20100101 Firefox/137.0" version="26.1.1">
  <diagram name="Page-1" id="ZbPvLmyu4UWi6uR5NwiG">
    <mxGraphModel dx="2350" dy="936" grid="1" gridSize="10" guides="1" tooltips="1" connect="1" arrows="1" fold="1" page="1" pageScale="1" pageWidth="850" pageHeight="1100" math="0" shadow="0">
      <root>
        <mxCell id="0" />
        <mxCell id="1" parent="0" />
        <mxCell id="Ac_v-80KtiURiUKC_sX3-1" value="" style="rounded=0;whiteSpace=wrap;html=1;fillColor=none;" parent="1" vertex="1">
          <mxGeometry x="40" y="120" width="880" height="440" as="geometry" />
        </mxCell>
        <mxCell id="Ac_v-80KtiURiUKC_sX3-3" value="&lt;font style=&quot;font-size: 20px;&quot;&gt;Foot switch&lt;/font&gt;" style="ellipse;whiteSpace=wrap;html=1;aspect=fixed;fillColor=none;" parent="1" vertex="1">
          <mxGeometry x="80" y="440" width="80" height="80" as="geometry" />
        </mxCell>
        <mxCell id="Ac_v-80KtiURiUKC_sX3-4" value="&lt;font style=&quot;font-size: 20px;&quot;&gt;Foot switch&lt;/font&gt;" style="ellipse;whiteSpace=wrap;html=1;aspect=fixed;fillColor=none;" parent="1" vertex="1">
          <mxGeometry x="200" y="440" width="80" height="80" as="geometry" />
        </mxCell>
        <mxCell id="Ac_v-80KtiURiUKC_sX3-5" value="&lt;font style=&quot;font-size: 20px;&quot;&gt;Foot switch&lt;/font&gt;" style="ellipse;whiteSpace=wrap;html=1;aspect=fixed;fillColor=none;" parent="1" vertex="1">
          <mxGeometry x="320" y="440" width="80" height="80" as="geometry" />
        </mxCell>
        <mxCell id="Ac_v-80KtiURiUKC_sX3-6" value="&lt;font style=&quot;font-size: 20px;&quot;&gt;Foot switch&lt;/font&gt;" style="ellipse;whiteSpace=wrap;html=1;aspect=fixed;fillColor=none;" parent="1" vertex="1">
          <mxGeometry x="440" y="440" width="80" height="80" as="geometry" />
        </mxCell>
        <mxCell id="Ac_v-80KtiURiUKC_sX3-7" value="&lt;font style=&quot;font-size: 20px;&quot;&gt;Foot switch&lt;/font&gt;" style="ellipse;whiteSpace=wrap;html=1;aspect=fixed;fillColor=none;" parent="1" vertex="1">
          <mxGeometry x="560" y="440" width="80" height="80" as="geometry" />
        </mxCell>
        <mxCell id="Ac_v-80KtiURiUKC_sX3-8" value="&lt;font style=&quot;font-size: 20px;&quot;&gt;Foot switch&lt;/font&gt;" style="ellipse;whiteSpace=wrap;html=1;aspect=fixed;fillColor=none;" parent="1" vertex="1">
          <mxGeometry x="680" y="440" width="80" height="80" as="geometry" />
        </mxCell>
        <mxCell id="Ac_v-80KtiURiUKC_sX3-9" value="&lt;font style=&quot;font-size: 20px;&quot;&gt;Foot switch&lt;/font&gt;" style="ellipse;whiteSpace=wrap;html=1;aspect=fixed;fillColor=none;" parent="1" vertex="1">
          <mxGeometry x="800" y="440" width="80" height="80" as="geometry" />
        </mxCell>
        <mxCell id="Ac_v-80KtiURiUKC_sX3-10" value="" style="ellipse;whiteSpace=wrap;html=1;aspect=fixed;fillColor=#FF0000;strokeColor=#b85450;" parent="1" vertex="1">
          <mxGeometry x="110" y="390" width="20" height="20" as="geometry" />
        </mxCell>
        <mxCell id="Ac_v-80KtiURiUKC_sX3-11" value="" style="ellipse;whiteSpace=wrap;html=1;aspect=fixed;fillColor=#FF0000;strokeColor=#b85450;" parent="1" vertex="1">
          <mxGeometry x="230" y="390" width="20" height="20" as="geometry" />
        </mxCell>
        <mxCell id="Ac_v-80KtiURiUKC_sX3-12" value="" style="ellipse;whiteSpace=wrap;html=1;aspect=fixed;fillColor=#FF0000;strokeColor=#b85450;" parent="1" vertex="1">
          <mxGeometry x="350" y="390" width="20" height="20" as="geometry" />
        </mxCell>
        <mxCell id="Ac_v-80KtiURiUKC_sX3-13" value="" style="ellipse;whiteSpace=wrap;html=1;aspect=fixed;fillColor=#FF0000;strokeColor=#b85450;" parent="1" vertex="1">
          <mxGeometry x="470" y="390" width="20" height="20" as="geometry" />
        </mxCell>
        <mxCell id="Ac_v-80KtiURiUKC_sX3-14" value="" style="ellipse;whiteSpace=wrap;html=1;aspect=fixed;fillColor=#FF0000;strokeColor=#b85450;" parent="1" vertex="1">
          <mxGeometry x="590" y="390" width="20" height="20" as="geometry" />
        </mxCell>
        <mxCell id="Ac_v-80KtiURiUKC_sX3-15" value="" style="ellipse;whiteSpace=wrap;html=1;aspect=fixed;fillColor=#FF0000;strokeColor=#b85450;" parent="1" vertex="1">
          <mxGeometry x="710" y="390" width="20" height="20" as="geometry" />
        </mxCell>
        <mxCell id="Ac_v-80KtiURiUKC_sX3-16" value="" style="ellipse;whiteSpace=wrap;html=1;aspect=fixed;fillColor=#FF0000;strokeColor=#b85450;" parent="1" vertex="1">
          <mxGeometry x="830" y="390" width="20" height="20" as="geometry" />
        </mxCell>
        <mxCell id="Ac_v-80KtiURiUKC_sX3-18" value="&lt;font style=&quot;font-size: 30px;&quot;&gt;Display&lt;/font&gt;" style="rounded=0;whiteSpace=wrap;html=1;fillColor=none;" parent="1" vertex="1">
          <mxGeometry x="80" y="160" width="360" height="120" as="geometry" />
        </mxCell>
        <mxCell id="Ac_v-80KtiURiUKC_sX3-21" value="Menu Up" style="ellipse;whiteSpace=wrap;html=1;aspect=fixed;fillColor=none;" parent="1" vertex="1">
          <mxGeometry x="475" y="160" width="50" height="50" as="geometry" />
        </mxCell>
        <mxCell id="L4aGGzQj29ahWLjSAcO5-3" value="" style="rounded=1;whiteSpace=wrap;html=1;fillColor=none;dashed=1;dashPattern=8 8;" parent="1" vertex="1">
          <mxGeometry x="70" y="435" width="710" height="90" as="geometry" />
        </mxCell>
        <mxCell id="L4aGGzQj29ahWLjSAcO5-6" style="edgeStyle=orthogonalEdgeStyle;rounded=0;orthogonalLoop=1;jettySize=auto;html=1;entryX=0;entryY=0.5;entryDx=0;entryDy=0;" parent="1" source="L4aGGzQj29ahWLjSAcO5-5" target="L4aGGzQj29ahWLjSAcO5-3" edge="1">
          <mxGeometry relative="1" as="geometry" />
        </mxCell>
        <mxCell id="L4aGGzQj29ahWLjSAcO5-5" value="&lt;font style=&quot;font-size: 20px;&quot;&gt;Bypass Effects&lt;/font&gt;" style="text;html=1;align=center;verticalAlign=middle;whiteSpace=wrap;rounded=0;" parent="1" vertex="1">
          <mxGeometry x="-120" y="447.5" width="100" height="65" as="geometry" />
        </mxCell>
        <mxCell id="L4aGGzQj29ahWLjSAcO5-7" value="" style="rounded=1;whiteSpace=wrap;html=1;fillColor=none;dashed=1;dashPattern=8 8;" parent="1" vertex="1">
          <mxGeometry x="100" y="380" width="760" height="40" as="geometry" />
        </mxCell>
        <mxCell id="L4aGGzQj29ahWLjSAcO5-9" style="edgeStyle=orthogonalEdgeStyle;rounded=0;orthogonalLoop=1;jettySize=auto;html=1;entryX=0;entryY=0.5;entryDx=0;entryDy=0;" parent="1" source="L4aGGzQj29ahWLjSAcO5-8" target="L4aGGzQj29ahWLjSAcO5-7" edge="1">
          <mxGeometry relative="1" as="geometry" />
        </mxCell>
        <mxCell id="L4aGGzQj29ahWLjSAcO5-8" value="&lt;font style=&quot;font-size: 20px;&quot;&gt;LED Indicator&lt;/font&gt;" style="text;html=1;align=center;verticalAlign=middle;whiteSpace=wrap;rounded=0;" parent="1" vertex="1">
          <mxGeometry x="-110" y="372.5" width="100" height="55" as="geometry" />
        </mxCell>
        <mxCell id="L4aGGzQj29ahWLjSAcO5-10" value="" style="rounded=1;whiteSpace=wrap;html=1;fillColor=none;dashed=1;dashPattern=8 8;" parent="1" vertex="1">
          <mxGeometry x="790" y="435" width="100" height="90" as="geometry" />
        </mxCell>
        <mxCell id="L4aGGzQj29ahWLjSAcO5-12" style="edgeStyle=orthogonalEdgeStyle;rounded=0;orthogonalLoop=1;jettySize=auto;html=1;entryX=0.5;entryY=1;entryDx=0;entryDy=0;" parent="1" source="L4aGGzQj29ahWLjSAcO5-11" target="L4aGGzQj29ahWLjSAcO5-10" edge="1">
          <mxGeometry relative="1" as="geometry" />
        </mxCell>
        <mxCell id="L4aGGzQj29ahWLjSAcO5-11" value="&lt;font style=&quot;font-size: 20px;&quot;&gt;Bypass All Effects&lt;/font&gt;" style="text;html=1;align=center;verticalAlign=middle;whiteSpace=wrap;rounded=0;" parent="1" vertex="1">
          <mxGeometry x="785" y="590" width="110" height="70" as="geometry" />
        </mxCell>
        <mxCell id="mpUOaHfKyBwpZecvaLMd-1" value="Menu Down" style="ellipse;whiteSpace=wrap;html=1;aspect=fixed;fillColor=none;" vertex="1" parent="1">
          <mxGeometry x="475" y="240" width="50" height="50" as="geometry" />
        </mxCell>
      </root>
    </mxGraphModel>
  </diagram>
</mxfile>
